<svg width="193" height="42" viewBox="0 0 193 42" fill="none" xmlns="http://www.w3.org/2000/svg">
<g clip-path="url(#clip0_1_5)">
<path fill-rule="evenodd" clip-rule="evenodd" d="M20 41C31.0457 41 40 32.0457 40 21C40 9.95431 31.0457 1 20 1C8.95429 1 0 9.95431 0 21C0 32.0457 8.95429 41 20 41ZM26.2393 10.3168C26.543 9.23805 25.4961 8.60013 24.54 9.2813L11.1931 18.7896C10.1562 19.5283 10.3193 21 11.4381 21H14.9527V20.9728H21.8025L16.2212 22.9421L13.7607 31.6832C13.457 32.762 14.5038 33.3999 15.46 32.7187L28.8069 23.2105C29.8438 22.4718 29.6806 21 28.5619 21H23.2321L26.2393 10.3168Z" fill="#3468C0"/>
<path d="M70.648 31H66.728L57.852 17.588V31H53.932V11.428H57.852L66.728 24.868V11.428H70.648V31ZM81.9698 31.252C80.4765 31.252 79.1325 30.9253 77.9378 30.272C76.7432 29.6 75.8005 28.6573 75.1098 27.444C74.4378 26.2307 74.1018 24.8307 74.1018 23.244C74.1018 21.6573 74.4472 20.2573 75.1378 19.044C75.8472 17.8307 76.8085 16.8973 78.0218 16.244C79.2352 15.572 80.5885 15.236 82.0818 15.236C83.5752 15.236 84.9285 15.572 86.1418 16.244C87.3552 16.8973 88.3072 17.8307 88.9978 19.044C89.7072 20.2573 90.0618 21.6573 90.0618 23.244C90.0618 24.8307 89.6978 26.2307 88.9698 27.444C88.2605 28.6573 87.2898 29.6 86.0578 30.272C84.8445 30.9253 83.4818 31.252 81.9698 31.252ZM81.9698 27.836C82.6792 27.836 83.3418 27.668 83.9578 27.332C84.5925 26.9773 85.0965 26.4547 85.4698 25.764C85.8432 25.0733 86.0298 24.2333 86.0298 23.244C86.0298 21.7693 85.6378 20.64 84.8538 19.856C84.0885 19.0533 83.1458 18.652 82.0258 18.652C80.9058 18.652 79.9632 19.0533 79.1978 19.856C78.4512 20.64 78.0778 21.7693 78.0778 23.244C78.0778 24.7187 78.4418 25.8573 79.1698 26.66C79.9165 27.444 80.8498 27.836 81.9698 27.836ZM98.0613 18.708V26.212C98.0613 26.7347 98.1826 27.1173 98.4253 27.36C98.6866 27.584 99.116 27.696 99.7133 27.696H101.533V31H99.0693C95.7653 31 94.1133 29.3947 94.1133 26.184V18.708H92.2653V15.488H94.1133V11.652H98.0613V15.488H101.533V18.708H98.0613ZM119.333 22.908C119.333 23.468 119.295 23.972 119.221 24.42H107.881C107.974 25.54 108.366 26.4173 109.057 27.052C109.747 27.6867 110.597 28.004 111.605 28.004C113.061 28.004 114.097 27.3787 114.713 26.128H118.941C118.493 27.6213 117.634 28.8533 116.365 29.824C115.095 30.776 113.537 31.252 111.689 31.252C110.195 31.252 108.851 30.9253 107.657 30.272C106.481 29.6 105.557 28.6573 104.885 27.444C104.231 26.2307 103.905 24.8307 103.905 23.244C103.905 21.6387 104.231 20.2293 104.885 19.016C105.538 17.8027 106.453 16.8693 107.629 16.216C108.805 15.5627 110.158 15.236 111.689 15.236C113.163 15.236 114.479 15.5533 115.637 16.188C116.813 16.8227 117.718 17.728 118.353 18.904C119.006 20.0613 119.333 21.396 119.333 22.908ZM115.273 21.788C115.254 20.78 114.89 19.9773 114.181 19.38C113.471 18.764 112.603 18.456 111.577 18.456C110.606 18.456 109.785 18.7547 109.113 19.352C108.459 19.9307 108.058 20.7427 107.909 21.788H115.273ZM128.69 31.252C127.421 31.252 126.282 31.028 125.274 30.58C124.266 30.1133 123.463 29.488 122.866 28.704C122.287 27.92 121.97 27.052 121.914 26.1H125.862C125.937 26.6973 126.226 27.192 126.73 27.584C127.253 27.976 127.897 28.172 128.662 28.172C129.409 28.172 129.987 28.0227 130.398 27.724C130.827 27.4253 131.042 27.0427 131.042 26.576C131.042 26.072 130.781 25.6987 130.258 25.456C129.754 25.1947 128.942 24.9147 127.822 24.616C126.665 24.336 125.713 24.0467 124.966 23.748C124.238 23.4493 123.603 22.992 123.062 22.376C122.539 21.76 122.278 20.9293 122.278 19.884C122.278 19.0253 122.521 18.2413 123.006 17.532C123.51 16.8227 124.219 16.2627 125.134 15.852C126.067 15.4413 127.159 15.236 128.41 15.236C130.258 15.236 131.733 15.7027 132.834 16.636C133.935 17.5507 134.542 18.792 134.654 20.36H130.902C130.846 19.744 130.585 19.2587 130.118 18.904C129.67 18.5307 129.063 18.344 128.298 18.344C127.589 18.344 127.038 18.4747 126.646 18.736C126.273 18.9973 126.086 19.3613 126.086 19.828C126.086 20.3507 126.347 20.752 126.87 21.032C127.393 21.2933 128.205 21.564 129.306 21.844C130.426 22.124 131.35 22.4133 132.078 22.712C132.806 23.0107 133.431 23.4773 133.954 24.112C134.495 24.728 134.775 25.5493 134.794 26.576C134.794 27.472 134.542 28.2747 134.038 28.984C133.553 29.6933 132.843 30.2533 131.91 30.664C130.995 31.056 129.922 31.252 128.69 31.252ZM152.824 17.504C152.824 18.5493 152.572 19.5293 152.068 20.444C151.583 21.3587 150.808 22.096 149.744 22.656C148.699 23.216 147.373 23.496 145.768 23.496H142.492V31H138.572V11.456H145.768C147.28 11.456 148.568 11.7173 149.632 12.24C150.696 12.7627 151.489 13.4813 152.012 14.396C152.553 15.3107 152.824 16.3467 152.824 17.504ZM145.6 20.332C146.683 20.332 147.485 20.0893 148.008 19.604C148.531 19.1 148.792 18.4 148.792 17.504C148.792 15.6 147.728 14.648 145.6 14.648H142.492V20.332H145.6ZM155.159 23.188C155.159 21.62 155.467 20.2293 156.083 19.016C156.718 17.8027 157.567 16.8693 158.631 16.216C159.714 15.5627 160.918 15.236 162.243 15.236C163.4 15.236 164.408 15.4693 165.267 15.936C166.144 16.4027 166.844 16.9907 167.367 17.7V15.488H171.315V31H167.367V28.732C166.863 29.46 166.163 30.0667 165.267 30.552C164.39 31.0187 163.372 31.252 162.215 31.252C160.908 31.252 159.714 30.916 158.631 30.244C157.567 29.572 156.718 28.6293 156.083 27.416C155.467 26.184 155.159 24.7747 155.159 23.188ZM167.367 23.244C167.367 22.292 167.18 21.48 166.807 20.808C166.434 20.1173 165.93 19.5947 165.295 19.24C164.66 18.8667 163.979 18.68 163.251 18.68C162.523 18.68 161.851 18.8573 161.235 19.212C160.619 19.5667 160.115 20.0893 159.723 20.78C159.35 21.452 159.163 22.2547 159.163 23.188C159.163 24.1213 159.35 24.9427 159.723 25.652C160.115 26.3427 160.619 26.8747 161.235 27.248C161.87 27.6213 162.542 27.808 163.251 27.808C163.979 27.808 164.66 27.6307 165.295 27.276C165.93 26.9027 166.434 26.38 166.807 25.708C167.18 25.0173 167.367 24.196 167.367 23.244ZM174.696 23.188C174.696 21.62 175.004 20.2293 175.62 19.016C176.254 17.8027 177.113 16.8693 178.196 16.216C179.278 15.5627 180.482 15.236 181.808 15.236C182.816 15.236 183.777 15.46 184.692 15.908C185.606 16.3373 186.334 16.916 186.876 17.644V10.28H190.852V31H186.876V28.704C186.39 29.4693 185.709 30.0853 184.832 30.552C183.954 31.0187 182.937 31.252 181.78 31.252C180.473 31.252 179.278 30.916 178.196 30.244C177.113 29.572 176.254 28.6293 175.62 27.416C175.004 26.184 174.696 24.7747 174.696 23.188ZM186.904 23.244C186.904 22.292 186.717 21.48 186.344 20.808C185.97 20.1173 185.466 19.5947 184.832 19.24C184.197 18.8667 183.516 18.68 182.788 18.68C182.06 18.68 181.388 18.8573 180.772 19.212C180.156 19.5667 179.652 20.0893 179.26 20.78C178.886 21.452 178.7 22.2547 178.7 23.188C178.7 24.1213 178.886 24.9427 179.26 25.652C179.652 26.3427 180.156 26.8747 180.772 27.248C181.406 27.6213 182.078 27.808 182.788 27.808C183.516 27.808 184.197 27.6307 184.832 27.276C185.466 26.9027 185.97 26.38 186.344 25.708C186.717 25.0173 186.904 24.196 186.904 23.244Z" fill="black"/>
</g>
<defs>
<clipPath id="clip0_1_5">
<rect width="193" height="42" fill="white"/>
</clipPath>
</defs>
</svg>
